<?xml version="1.0" standalone="no"?>
<!DOCTYPE svg PUBLIC "-//W3C//DTD SVG 20010904//EN"
 "http://www.w3.org/TR/2001/REC-SVG-20010904/DTD/svg10.dtd">
<svg version="1.0" xmlns="http://www.w3.org/2000/svg"
 width="398.000000pt" height="108.000000pt" viewBox="0 0 398.000000 108.000000"
 preserveAspectRatio="xMidYMid meet">

<g transform="translate(0.000000,108.000000) scale(0.100000,-0.100000)"
fill="#000000" stroke="none">
<path d="M625 1060 c-46 -19 -68 -64 -185 -388 l-120 -332 -7 -151 c-8 -142
-4 -179 17 -179 5 0 51 55 102 122 l92 123 123 338 c68 185 123 349 123 363 0
41 -29 84 -65 100 -38 16 -51 16 -80 4z m69 -61 c23 -18 35 -57 21 -71 -8 -7
-115 33 -115 43 0 9 49 49 60 49 4 0 19 -9 34 -21z m-5 -125 c2 -2 -43 -131
-99 -288 l-103 -285 -51 20 c-28 12 -53 22 -54 24 -2 2 43 131 99 288 l103
284 51 -20 c27 -11 52 -22 54 -23z m-252 -608 c21 -11 20 -13 -34 -86 -51 -71
-54 -73 -49 -40 3 19 8 61 11 93 7 62 12 65 72 33z"/>
<path d="M1750 540 l0 -330 65 0 65 0 0 134 c0 183 14 216 93 216 60 0 66 -16
69 -190 l3 -155 63 -3 62 -3 0 166 c0 179 -7 211 -53 254 -34 31 -138 41 -185
17 -17 -9 -35 -16 -40 -16 -5 0 -9 46 -9 103 -1 56 -2 110 -2 120 -1 14 -11
17 -66 17 l-65 0 0 -330z"/>
<path d="M2719 858 c-2 -7 -3 -156 -1 -331 l3 -318 62 3 62 3 5 152 c6 175 13
193 77 193 67 0 67 -2 73 -182 l5 -163 63 -3 62 -3 0 173 c0 196 -9 229 -71
260 -41 22 -134 23 -169 3 -14 -8 -28 -14 -32 -15 -5 0 -8 47 -8 104 0 57 -3
111 -6 120 -8 20 -120 23 -125 4z"/>
<path d="M114 665 c-49 -53 -93 -103 -97 -111 -9 -16 -1 -27 110 -149 37 -41
76 -75 85 -75 37 0 17 43 -57 123 -41 45 -75 85 -75 89 0 4 34 45 75 90 72 79
89 115 59 125 -7 2 -52 -39 -100 -92z"/>
<path d="M850 746 c-13 -17 -3 -41 30 -71 12 -11 45 -46 72 -77 l50 -58 -82
-90 c-79 -86 -95 -120 -56 -120 19 0 196 190 196 211 0 15 -156 196 -183 211
-9 5 -19 2 -27 -6z"/>
<path d="M1430 641 c-50 -27 -71 -54 -77 -100 -11 -80 31 -126 146 -157 68
-19 86 -38 55 -61 -23 -18 -69 -10 -106 17 -15 11 -29 20 -32 20 -9 0 -76 -68
-76 -77 0 -16 70 -60 117 -73 81 -24 182 9 215 71 45 84 9 145 -110 183 -79
25 -100 41 -89 70 12 31 92 12 119 -28 5 -7 24 5 49 31 50 49 47 57 -34 98
-61 30 -127 32 -177 6z"/>
<path d="M2333 634 c-67 -33 -72 -48 -24 -80 33 -22 43 -24 61 -14 35 19 90
15 113 -9 26 -26 17 -35 -36 -37 -86 -2 -127 -15 -167 -53 -45 -43 -59 -93
-41 -152 22 -71 123 -108 211 -76 26 10 46 12 48 7 2 -6 33 -10 68 -10 l64 0
0 168 c0 139 -3 173 -18 202 -39 78 -175 105 -279 54z m165 -266 c4 -35 -29
-68 -69 -68 -65 0 -89 40 -48 81 16 16 30 19 67 17 43 -3 47 -5 50 -30z"/>
<path d="M3305 639 c-22 -11 -48 -28 -59 -38 -18 -19 -18 -20 25 -46 34 -22
46 -25 61 -16 26 16 94 14 112 -5 32 -31 15 -42 -67 -42 -57 0 -132 -35 -161
-75 -15 -20 -20 -42 -20 -83 2 -72 33 -108 112 -126 47 -10 61 -9 101 5 27 10
47 12 49 7 2 -6 33 -10 68 -10 l64 0 0 173 c0 155 -2 175 -20 205 -42 68 -178
94 -265 51z m153 -276 c4 -37 -26 -63 -73 -63 -37 0 -50 9 -59 37 -11 35 29
65 84 61 42 -3 45 -5 48 -35z"/>
<path d="M3846 645 c-20 -11 -33 -12 -40 -5 -5 5 -36 10 -68 10 l-58 0 0 -220
0 -221 63 3 62 3 5 153 c5 147 6 155 29 173 15 12 39 19 67 19 38 0 44 3 50
24 3 13 4 35 2 47 -2 20 -10 24 -43 27 -22 1 -53 -5 -69 -13z"/>
</g>
</svg>
